# xmcd
#
# Track frame offsets:
#	150
#	16252
#	25705
#	51360
#	58262
#	73980
#	80860
#	89495
#	100125
#	106975
#	120345
#	127080
#	139077
#	147605
#	156137
#	169625
#	183492
#	196345
#	206925
#	216484
#	233012
#	243045
#	255267
#	264027
#	273902
#	275845
#	286362
#	322269
#	324050
#	337569
#
# Disc length: 4559 seconds
#
# Revision: 0
# Processed by: cddbd v1.5.2PL0 Copyright (c) Steve Scherf et al.
# Submitted via: audiograbber 1.83.01
#
DISCID=c011cd1e
DTITLE=Frank Sinatra - Frankie Goes To Hollywood (1940-1954)
DYEAR=2004
DGENRE=
TTITLE0=Count On Me
TTITLE1=Pearl Of The Persian Sea
TTITLE2=On The Town
TTITLE3=Its Only Money
TTITLE4=Kisses And Tears
TTITLE5=All Of Me
TTITLE6=How Deep Is The Ocean
TTITLE7=You`re a Sweetheart
TTITLE8=(I Got a Woman Crazy For Me) She`s Funny That Way
TTITLE9=A Good Man Is Hard to Find
TTITLE10=Lonesome Man Blues
TTITLE11=That Old Black Magic
TTITLE12=I`ve Got a Crush on You
TTITLE13=When You`re Smiling (The Whole World Smiles With You)
TTITLE14=From Here To Eternity
TTITLE15=Three Coins in the Fountain
TTITLE16=Young at Heart
TTITLE17=Someone to Watch over Me
TTITLE18=Just One of Those Things
TTITLE19=One for My Baby (And One More for the Road)
TTITLE20=You, My Love
TTITLE21=Necessity
TTITLE22=Ad Lib Blues
TTITLE23=That Great Come-And-Get-It Day
TTITLE24=Necessity
TTITLE25=If This Isn`t Love
TTITLE26=Old Devil Moon
TTITLE27=Old Devil Moon
TTITLE28=Necessity
TTITLE29=Finale: How Are Things in Glocca Morra?
EXTD=
EXTT0=
EXTT1=
EXTT2=
EXTT3=
EXTT4=
EXTT5=
EXTT6=
EXTT7=
EXTT8=
EXTT9=
EXTT10=
EXTT11=
EXTT12=
EXTT13=
EXTT14=
EXTT15=
EXTT16=
EXTT17=
EXTT18=
EXTT19=
EXTT20=
EXTT21=
EXTT22=
EXTT23=
EXTT24=
EXTT25=
EXTT26=
EXTT27=
EXTT28=
EXTT29=
PLAYORDER=
